HIERARCHY
ROOT pelvis
{
  OFFSET 0 100 0
  CHANNELS 6 Xposition Yposition Zposition Zrotation Xrotation Yrotation
  JOINT pelvis_right_femur
  {
    OFFSET -10.78128 -3.44521 -0.5502486
    CHANNELS 3 Zrotation Xrotation Yrotation
    JOINT right_femur_tibia
    {
      OFFSET -0.8047443 -44.0398 -0.1307829
      CHANNELS 3 Zrotation Xrotation Yrotation
      JOINT right_tibia_foot
      {
        OFFSET 3.006224 -47.83518 -5
        CHANNELS 3 Zrotation Xrotation Yrotation
        End Site
        {
          OFFSET 0 -5 15
        }
      }
    }
  }
  JOINT pelvis_left_femur
  {
    OFFSET 10.78128 -3.44521 -0.5502486
    CHANNELS 3 Zrotation Xrotation Yrotation
    JOINT left_femur_tibia
    {
      OFFSET 0.8047443 -44.0398 -0.1307829
      CHANNELS 3 Zrotation Xrotation Yrotation
      JOINT left_tibia_foot
      {
        OFFSET -4.370144 -48.10324 -4.275266
        CHANNELS 3 Zrotation Xrotation Yrotation
        End Site
        {
          OFFSET 0 -5 15
        }
      }
    }
  }
  JOINT pelvis_spine1
  {
    OFFSET 0 6.468898 -3.129235
    CHANNELS 3 Zrotation Xrotation Yrotation
    JOINT spine1
    {
      OFFSET 0 23.15396 4.99043
      CHANNELS 3 Zrotation Xrotation Yrotation
      JOINT spine2
      {
        OFFSET 0 20.79997 -5.064912
        CHANNELS 3 Zrotation Xrotation Yrotation
        JOINT neck
        {
          OFFSET 0 14.38658 9.616178
          CHANNELS 3 Zrotation Xrotation Yrotation
          End Site
          {
            OFFSET 0 20 0
          }
        }
      }
      JOINT right_manubrium
      {
        OFFSET -5.722621 16.35077 3.967754
        CHANNELS 3 Zrotation Xrotation Yrotation
        JOINT right_clavicle
        {
          OFFSET -13.16364 1.694482 -4.693211
          CHANNELS 3 Zrotation Xrotation Yrotation
          JOINT right_humerus
          {
            OFFSET -28.5034 -0.3100689 -2.792744
            CHANNELS 3 Zrotation Xrotation Yrotation
            JOINT right_radius
            {
              OFFSET -25.15693 0.02248979 -1.271978
              CHANNELS 3 Zrotation Xrotation Yrotation
              End Site
              {
                OFFSET -15 0 0
              }
            }
          }
        }
      }
      JOINT left_manubrium
      {
        OFFSET 5.722621 16.35077 3.967754
        CHANNELS 3 Zrotation Xrotation Yrotation
        JOINT left_clavicle
        {
          OFFSET 13.16364 1.694482 -4.693211
          CHANNELS 3 Zrotation Xrotation Yrotation
          JOINT left_humerus
          {
            OFFSET 29.39168 -1.063119 -2.237045
            CHANNELS 3 Zrotation Xrotation Yrotation
            JOINT left_radius
            {
              OFFSET 24.59957 -0.9528479 0.9047498
              CHANNELS 3 Zrotation Xrotation Yrotation
              End Site
              {
                OFFSET 15 -0 -0
              }
            }
          }
        }
      }
    }
  }
}
MOTION
Frames: 19
Frame Time: 0.0416666666667
-115.5654 111.3139 -83.10248 7.27903 5.635755 54.1944 -7.856061 -3.290909 12.36375 -0 43.32925 -0 -11.39046 -33.84525 -6.597701 -12.36236 -1.813763 -16.96216 -0 3.401483 -0 35.29733 2.131514 33.30508 -11.57916 -4.815174 9.466535 3.073701 11.73669 -10.77072 -2.541886 21.64398 8.454203 6.215292 -14.96323 4.511104 10.94559 -18.79662 12.46887 86.16922 63.96425 -17.65961 -0 0 17.54291 -6.397899 6.109668 0.8132276 3.917894 -23.46071 -2.796547 -80.82246 -6.731402 8.373272 0 0 -15.91829 34.37606 -7.788633 -30.31666
-115.4249 110.9787 -84.0183 7.426768 5.731431 53.13181 -8.275049 -2.732983 13.36891 -0 43.75316 -0 -10.8755 -36.44061 -7.291836 -12.76673 -1.2133 -18.02032 -0 1.445448 -0 36.252 2.348418 34.15927 -11.82251 -5.334401 9.571426 3.244205 11.54596 -10.88349 -2.319683 21.81977 8.14598 5.552226 -15.29587 4.988475 10.78118 -19.04168 12.38439 86.26442 63.55105 -17.80653 -0 0 17.69202 -5.723437 6.263893 0.9826262 3.621603 -22.9714 -2.339751 -80.69227 -5.85749 8.158648 0 0 -16.07466 34.26279 -7.227745 -29.77131
-115.5159 110.5521 -85.12159 7.583418 5.771816 52.04816 -8.667626 -2.124963 14.32069 -0 44.10479 -0 -10.33859 -38.93649 -7.929455 -13.13174 -0.5754789 -19.1207 0 -0.4561723 0 37.01714 2.481922 34.97566 -12.01089 -5.861296 9.650489 3.394789 11.35284 -10.95137 -2.067645 22.0177 7.826928 4.870456 -15.67479 5.497016 10.56926 -19.30619 12.29697 86.29145 62.86722 -17.89702 -0 0 17.83575 -5.122175 6.463529 1.195946 3.338331 -22.46345 -1.895263 -80.63091 -4.758912 8.028981 0 0 -16.1702 34.03107 -6.430766 -29.05802
-115.8231 110.0348 -86.41225 7.7373 5.760619 50.94955 -9.016892 -1.497472 15.21973 -0 44.3599 -0 -9.763442 -41.35138 -8.507861 -13.45361 0.1031645 -20.25378 0 -2.275521 0 37.58828 2.517096 35.74999 -12.14234 -6.388644 9.707084 3.528997 11.1527 -10.97906 -1.788656 22.23113 7.494962 4.173502 -16.09909 6.028515 10.31444 -19.58594 12.20471 86.2511 61.92343 -17.93987 -0 0 17.98974 -4.565402 6.68877 1.431951 3.073388 -21.93591 -1.462425 -80.64461 -3.431973 7.983799 0 0 -16.21235 33.66334 -5.416904 -28.17313
-116.3298 109.4281 -87.88759 7.878149 5.699849 49.84211 -9.306392 -0.8778205 16.05995 -0 44.50117 -0 -9.139567 -43.68082 -9.018073 -13.72636 0.8222074 -21.40687 0 -3.981679 0 37.9549 2.439444 36.475 -12.21399 -6.906882 9.742888 3.648219 10.94227 -10.96872 -1.486244 22.45415 7.151385 3.469148 -16.56497 6.5742 10.02202 -19.87503 12.10625 86.14948 60.73384 -17.94553 -0 0 18.16346 -4.034709 6.922744 1.67308 2.832603 -21.39039 -1.043284 -80.74168 -1.879207 8.02613 0 0 -16.20491 33.14384 -4.205785 -27.11397
-117.0168 108.7351 -89.54094 7.996225 5.590694 48.73217 -9.519566 -0.2930114 16.82992 -0 44.51893 -0 -8.461313 -45.89899 -9.446394 -13.94265 1.578066 -22.56396 0 -5.541265 0 38.10383 2.235576 37.14093 -12.22266 -7.404231 9.758067 3.752318 10.71984 -10.9211 -1.164843 22.681 6.800603 2.769004 -17.06637 7.124675 9.698543 -20.16593 12.00094 85.99742 59.31923 -17.92588 -0 0 18.36058 -3.520079 7.151073 1.904709 2.622202 -20.83115 -0.6420117 -80.93138 -0.1116438 8.161159 0 0 -16.15039 32.46019 -2.820484 -25.88052
-117.8616 107.9607 -91.36035 8.081637 5.434355 47.62641 -9.639388 0.2281685 17.51443 -0 44.41152 -0 -7.727423 -47.96136 -9.776487 -14.09451 2.364549 -23.70584 0 -6.919636 0 38.02224 1.894213 37.73615 -12.16535 -7.867065 9.751478 3.84025 10.48531 -10.8366 -0.8298921 22.90562 6.449656 2.087757 -17.5956 7.670066 9.351992 -20.4497 11.88894 85.8088 57.70903 -17.89302 -0 0 18.57951 -3.018098 7.361666 2.114773 2.448537 -20.26489 -0.2642308 -81.22277 1.849689 8.395115 0 0 -16.05158 31.60499 -1.289569 -24.47686
-118.8377 107.1131 -93.32756 8.123926 5.232752 46.53191 -9.64836 0.6539542 18.09621 -0 44.18548 -0 -6.941495 -49.80809 -9.992083 -14.1741 3.173259 -24.81051 0 -8.08246 0 37.70023 1.407326 38.24757 -12.03962 -8.280484 9.720886 3.91061 10.24027 -10.71608 -0.4877978 23.12131 6.107621 1.44222 -18.14416 8.200287 8.991828 -20.71655 11.77129 85.59848 55.94206 -17.85772 -0 0 18.81418 -2.530501 7.54477 2.293687 2.317706 -19.70054 0.08366051 -81.62357 3.973061 8.73432 0 0 -15.91257 30.57731 0.3520086 -22.91231
-119.9153 106.2042 -95.41721 8.111932 4.989085 45.4561 -9.528945 0.9492614 18.55767 -0 43.85525 -0 -6.113437 -51.3678 -10.08033 -14.17435 3.993897 -25.85374 0 -8.997517 0 37.13274 0.7712685 38.66113 -11.84386 -8.629047 9.663189 3.962081 9.987995 -10.56145 -0.1457608 23.32068 5.784937 0.8502723 -18.70355 8.7054 8.628767 -20.95646 11.64997 85.38047 54.06611 -17.82803 -0 0 19.0549 -2.063076 7.693246 2.434509 2.235128 -19.14882 0.3951134 -82.13892 6.216171 9.184272 0 0 -15.73927 29.38418 2.063191 -21.20259
-121.0612 105.2498 -97.59646 8.03396 4.7082 44.40676 -9.264487 1.076138 18.88268 -0 43.44244 -0 -5.261626 -52.56189 -10.03554 -14.08955 4.814519 -26.80972 0 -9.636533 0 36.32094 -0.01225949 38.96222 -11.57747 -8.897603 9.574679 3.993763 9.733469 -10.37606 0.1884993 23.49563 5.492671 0.3297416 -19.26611 9.175993 8.274341 -21.15992 11.52785 85.16662 52.13627 -17.80856 -0 0 19.28921 -1.624889 7.802947 2.53324 2.205124 -18.62191 0.66397 -82.76999 8.527113 9.748631 0 0 -15.5395 28.0419 3.798163 -19.37078
-122.2396 104.27 -99.825 7.878228 4.396757 43.392 -8.840582 0.9949548 19.05823 -0 42.9742 -0 -4.41488 -53.30914 -9.862388 -13.91592 5.621793 -27.65189 0 -9.976923 0 35.27289 -0.9355674 39.13617 -11.24094 -9.072185 9.451338 4.00538 9.483287 -10.16477 0.507101 23.6376 5.241761 -0.1026865 -19.82569 9.603531 7.940273 -21.31868 11.40861 84.96614 50.2123 -17.80041 -0 0 19.50281 -1.227773 7.873093 2.589162 2.230553 -18.13298 0.8848816 -83.51268 10.84613 10.428 0 0 -15.32281 26.57696 5.5086 -17.4481
-123.4129 103.2895 -102.0556 7.633629 4.063147 42.42029 -8.246792 0.6663046 19.07587 -0 42.48102 -0 -3.612723 -53.53064 -9.577214 -13.65208 6.401306 -28.35373 0 -10.00331 0 34.00373 -1.984748 39.16881 -10.83595 -9.140888 9.289187 3.997352 9.245548 -9.933883 0.8024039 23.73789 5.042264 -0.4324926 -20.37811 9.980651 7.637696 -21.42643 11.29658 84.7856 48.35516 -17.80165 -0 0 19.68046 -0.8860036 7.906506 2.605142 2.312567 -17.69575 1.053563 -84.35621 13.10806 11.21843 0 0 -15.10017 25.02639 7.146486 -15.47433
-124.542 102.3365 -104.2349 7.290769 3.717141 41.50054 -7.478522 0.05357034 18.93274 -0 41.99352 -0 -2.902354 -53.15483 -9.205731 -13.29941 7.137951 -28.88954 0 -9.708763 0 32.53536 -3.13995 39.04706 -10.36538 -9.094673 9.084678 3.970732 9.029629 -9.690771 1.067416 23.78817 4.902653 -0.6482172 -20.92128 10.30136 7.376278 -21.4793 11.19646 84.62953 46.62289 -17.80824 -0 0 19.80686 -0.6161212 7.909606 2.587822 2.45053 -17.32408 1.166844 -85.28194 15.24534 12.10984 0 0 -14.88352 23.43716 8.667149 -13.49753
-125.5871 101.4418 -106.305 6.843283 3.369244 40.64217 -6.538826 -0.8738796 18.6318 -0 41.53867 -0 -2.331966 -52.12256 -8.776908 -12.86237 7.816433 -29.23528 0 -9.095671 0 30.89576 -4.376164 38.75951 -9.833444 -8.928038 8.835115 3.92701 8.845871 -9.443383 1.296166 23.78113 4.829198 -0.7421829 -21.45475 10.56114 7.1633 -21.47613 11.11308 84.5011 45.06631 -17.81504 -0 0 19.86741 -0.4368394 7.892099 2.547649 2.642132 -17.03151 1.222505 -86.26251 17.19133 13.08433 0 0 -14.68542 21.86459 10.03204 -11.57306
-126.5081 100.6371 -108.2051 6.289385 3.029753 39.85519 -5.439921 -2.136969 18.18109 -0 41.13533 -0 -1.942131 -50.39191 -8.314728 -12.3487 8.421938 -29.36931 0 -8.17633 0 29.11797 -5.664497 38.29706 -9.245813 -8.639519 8.539077 3.867793 8.705138 -9.199551 1.483988 23.71126 4.825493 -0.7110156 -21.97883 10.75688 7.002773 -21.41854 11.05106 84.40298 43.72466 -17.81684 -0 0 19.84889 -0.3690177 7.866308 2.498707 2.883707 -16.83083 1.218883 -87.26176 18.88373 14.11485 0 0 -14.51881 20.36953 11.21087 -9.761531
-127.2646 99.9527 -109.8732 5.633576 2.707547 39.15012 -4.204277 -3.742839 17.59169 -0 40.78969 -0 -1.758614 -47.9428 -7.831207 -11.76942 8.940994 -29.27318 0 -6.973182 0 27.23889 -6.973821 37.65331 -8.609861 -8.232 8.196811 3.794386 8.61823 -8.966211 1.627703 23.57572 4.89213 -0.5559523 -22.49303 10.88674 6.894628 -21.31059 11.01448 84.33809 42.62153 -17.80935 -0 0 19.73996 -0.4356513 7.846144 2.45833 3.17074 -16.73371 1.154289 -88.23549 20.26795 15.1646 0 0 -14.39696 19.01439 12.18285 -8.12591
-127.8163 99.41396 -111.2488 4.888417 2.408699 38.53765 -2.865262 -5.680718 16.87452 -0 40.49084 -0 -1.789431 -44.78142 -7.3236 -11.13879 9.362552 -28.93255 0 -5.51875 0 25.29775 -8.272674 36.82506 -7.934941 -7.712838 7.810566 3.707292 8.595149 -8.748581 1.725656 23.37541 5.026566 -0.2829405 -22.994 10.94983 6.83405 -21.15819 11.00654 84.31019 41.76148 -17.78997 -0 0 19.53151 -0.6618129 7.845772 2.446461 3.498492 -16.75031 1.026307 -89.13366 21.30002 16.1873 0 0 -14.33355 17.85839 12.93687 -6.727922
-128.1232 99.03846 -112.275 4.076163 2.135046 38.02797 -1.467477 -7.918127 16.03595 -0 40.20729 -0 -2.026654 -40.9444 -6.776405 -10.47399 9.67931 -28.33816 0 -3.855152 0 23.3344 -9.531206 35.8126 -7.232676 -7.093828 7.384813 3.605672 8.644193 -8.549378 1.777633 23.11597 5.223168 0.09745467 -23.47319 10.94573 6.811007 -20.96834 11.0292 84.32424 41.12743 -17.75841 -0 0 19.21673 -1.074431 7.878042 2.484734 3.862666 -16.8889 0.8310894 -89.90381 21.94906 17.12879 0 0 -14.34299 16.95243 13.47102 -5.624012
-128.1464 98.83231 -112.9009 3.230014 1.882959 37.62964 -0.06687537 -10.39793 15.07303 -0 39.88508 -0 -2.451106 -36.50259 -6.166616 -9.794689 9.889237 -27.48712 0 -2.032988 0 21.38732 -10.72292 34.62002 -6.517152 -6.391067 6.92633 3.486849 8.770912 -8.368188 1.784674 22.80876 5.473415 0.5703168 -23.91447 10.87396 6.810015 -20.74802 11.08279 84.38649 40.67937 -17.71712 -0 0 18.79112 -1.701713 7.952827 2.595197 4.259956 -17.15552 0.56283 -90.4957 22.19917 17.92967 0 0 -14.44079 16.334 13.79169 -4.861204
